<svg width="502" height="512" viewBox="0 0 502 512" fill="currentColor" xmlns="http://www.w3.org/2000/svg">
    <path fill-rule="evenodd" clip-rule="evenodd"
          d="M286.5 0.581874C207.219 7.15487 147.434 36.5259 132.78 76.1009C131.018 80.8589 130.579 84.2099 130.561 93.0329C130.542 102.676 130.863 104.808 133.165 110.312C139.542 125.561 150.126 137.808 166.247 148.591C192.046 165.848 223.744 176.581 268.5 183.217C285.887 185.795 344.933 185.796 363 183.218C406.169 177.06 441.203 165.15 465.911 148.234C475.651 141.566 488.524 128.653 492.989 121.072C502.834 104.354 503.766 85.8029 495.579 69.5019C478.348 35.1969 425.518 9.65787 355 1.54187C342.059 0.0528746 299.991 -0.537125 286.5 0.581874ZM130.052 182.661L130 238.29L135.25 242.303C184.83 280.202 281.007 300.081 361.107 288.985C414.618 281.573 468.932 260.23 495.75 236.076L501 231.348L500.937 128.033L498.806 131.033C493.853 138.007 478.892 151.649 469.315 157.924C431.536 182.677 379.174 195.596 316.5 195.626C293.247 195.638 277.714 194.633 259.523 191.94C199.672 183.08 153.112 160.313 131.802 129.489C130.196 127.165 130.102 130.03 130.052 182.661ZM87 186.533C85.173 188.36 85 189.866 85 203.966C85 219.104 84.957 219.411 82.75 220.071C81.513 220.442 77.019 222.497 72.766 224.639C68.512 226.781 64.837 228.533 64.599 228.533C64.362 228.533 58.906 224.258 52.474 219.033C45.126 213.064 39.909 209.533 38.437 209.533C36.624 209.533 33.27 213.005 23.603 224.887C16.733 233.331 10.834 241.347 10.494 242.7C10.082 244.344 10.478 245.841 11.688 247.214C13.009 248.712 32.919 264.962 34.721 266.012C34.889 266.11 32.017 276.103 31.49 277.256C31.434 277.378 25.788 277.962 18.944 278.552C12.1 279.143 5.038 279.85 3.25 280.125L0 280.624L0.015 301.328C0.033 327.638 -0.214 327.033 10.533 327.033C14.915 327.033 22.336 326.68 27.025 326.249L35.55 325.465L40.757 336.082L31.778 346.057C20.024 359.116 19.442 360.012 20.789 362.968C22.364 366.425 50.841 391.533 53.187 391.533C54.354 391.533 57.699 388.77 61.334 384.804C64.725 381.103 69.588 375.838 72.14 373.104L76.779 368.133L87.707 371.847L88.375 386.666C88.743 394.816 89.284 402.109 89.577 402.873C90.573 405.47 94.48 406.034 108 405.533C119.38 405.112 121.431 404.797 121.058 403.533C120.815 402.708 120.365 388.803 120.058 372.633L119.5 343.233L110.982 343.439C96.073 343.8 85.796 340.015 75.477 330.362C41.573 298.648 67.399 243.318 114.25 247.293L120 247.781V184.533H104.5C90.333 184.533 88.828 184.705 87 186.533ZM493 253.575C451.322 284.946 369.217 306.904 304 304.12C237.318 301.273 176.239 284.504 137.25 258.338L130 253.472V345.712L132.25 347.637C137.647 352.252 153.196 362.115 162.197 366.632C192.539 381.858 230.237 392.347 274 397.739C290.357 399.755 342.302 399.437 358 397.225C396.441 391.81 427.901 382.586 457.5 368.051C473.716 360.089 483.663 353.874 494.25 345.09L501 339.489V294.011C501 268.998 500.663 248.567 500.25 248.608C499.837 248.649 496.575 250.884 493 253.575ZM496 359.244C493.525 361.153 487.623 365.115 482.885 368.047C447.572 389.903 401.347 404.53 349.984 410.102C329.126 412.364 286.444 411.634 264.5 408.64C213.675 401.705 167.672 386.418 138 366.602L130.5 361.593L130.182 375.313C129.493 404.982 135.456 425.518 150.724 446.061C188.064 496.299 276.998 521.885 364 507.421C425.835 497.14 471.38 469.286 490.536 430.033C498.824 413.05 500.123 406.921 500.706 382.033C500.977 370.483 501.041 359.85 500.849 358.403L500.5 355.773L496 359.244Z"
          fill="#fff"/>
    <path d="M252.989 126H237.875L257.506 67.8182H276.227L295.858 126H280.744L267.08 82.4773H266.625L252.989 126ZM250.972 103.102H282.562V113.784H250.972V103.102Z"
          fill="#000"/>
    <path d="M323.628 126H302.122V67.8182H323.599C329.527 67.8182 334.632 68.983 338.912 71.3125C343.211 73.6231 346.526 76.9564 348.855 81.3125C351.185 85.6496 352.349 90.839 352.349 96.8807C352.349 102.941 351.185 108.15 348.855 112.506C346.544 116.862 343.24 120.205 338.94 122.534C334.641 124.845 329.537 126 323.628 126ZM316.185 114.011H323.088C326.346 114.011 329.101 113.462 331.355 112.364C333.628 111.246 335.342 109.438 336.497 106.938C337.671 104.419 338.259 101.066 338.259 96.8807C338.259 92.6951 337.671 89.3617 336.497 86.8807C335.323 84.3807 333.59 82.5814 331.298 81.483C329.026 80.3655 326.223 79.8068 322.889 79.8068H316.185V114.011Z"
          fill="#000"/>
    <path d="M360.56 126V67.8182H374.622V114.58H398.827V126H360.56Z" fill="#000"/>
</svg>
